<svg id="Layer_1" data-name="Layer 1" xmlns="http://www.w3.org/2000/svg" viewBox="0 0 22 22"><defs><style>.cls-1{fill:#fff;}.cls-2{fill:none;stroke:#707070;}.cls-3{fill:#fad553;}</style></defs><g id="Group_47" data-name="Group 47"><g id="Ellipse_10" data-name="Ellipse 10"><circle class="cls-1" cx="11" cy="11" r="11"/><circle class="cls-2" cx="11" cy="11" r="10.5"/></g><path class="cls-3" d="M19,9.35l-5.45-.79L11.15,3.62,8.71,8.56l-5.45.79L7.2,13.2l-.93,5.43,4.88-2.56L16,18.63l-.94-5.43Zm-7.37,5.74-.52-.22-.5.27L7.7,16.67l.53-3.29.1-.53-.4-.42L5.56,10.1l3.3-.48.54-.08L9.65,9l1.5-3h0l1.48,3,.24.54.54.08,3.3.48-2.35,2.3-.4.39.1.53.56,3.29Z"/></g><polygon class="cls-3" points="11.15 1.03 14.1 7.01 20.7 7.97 15.93 12.63 17.05 19.2 11.15 16.1 5.24 19.2 6.37 12.63 1.59 7.97 8.2 7.01 11.15 1.03"/></svg>