<svg xmlns="http://www.w3.org/2000/svg" width="22" height="22" viewBox="0 0 22 22">
  <g id="Group_46" data-name="Group 46" transform="translate(-30 0.159)">
    <circle id="Ellipse_9" data-name="Ellipse 9" cx="11" cy="11" r="11" transform="translate(30 -0.159)" fill="#a8c95c"/>
    <path id="FontAwsome_shopping-basket_" data-name="FontAwsome (shopping-basket)" d="M13.658,36.36v.379a.569.569,0,0,1-.569.569H12.9l-.619,4.334a1.138,1.138,0,0,1-1.127.977H2.5a1.138,1.138,0,0,1-1.127-.977L.759,37.309H.569A.569.569,0,0,1,0,36.739V36.36a.569.569,0,0,1,.569-.569h1.6L4.7,32.31a.759.759,0,1,1,1.227.893L4.042,35.791H9.615L7.733,33.2A.759.759,0,0,1,8.96,32.31l2.532,3.481h1.6A.569.569,0,0,1,13.658,36.36ZM7.4,40.533V37.878a.569.569,0,0,0-1.138,0v2.656a.569.569,0,1,0,1.138,0Zm2.656,0V37.878a.569.569,0,0,0-1.138,0v2.656a.569.569,0,1,0,1.138,0Zm-5.311,0V37.878a.569.569,0,0,0-1.138,0v2.656a.569.569,0,1,0,1.138,0Z" transform="translate(34.249 -26.358)" fill="#fff"/>
  </g>
</svg>
