<svg id="e0b35d3b-637f-4cd2-a9fd-b6e76c92ec56" xmlns="http://www.w3.org/2000/svg" viewBox="0 0 912.92 680.23"><defs><style>.cls-1{fill:#6a773c;}.cls-2{fill:#ffb9b9;}.cls-3{fill:#fad553;}.cls-4{fill:#a4c755;}.cls-5{fill:#2f2e41;}.cls-6{fill:#cfcce0;}.cls-7{fill:#f2f2f2;}.cls-8{fill:#3f3d56;}.cls-9{fill:#cde880;}</style></defs><rect class="cls-1" x="102" y="641.27" width="556.11" height="2.36"/><path class="cls-2" d="M396.92,316.38s-11.8,53.1,11.8,43.66,9.44-46,9.44-46Z"/><path class="cls-2" d="M617.61,334.08s28.33,34.22,10.63,41.31S601.09,343.52,603.45,340,617.61,334.08,617.61,334.08Z"/><circle class="cls-2" cx="550.34" cy="56.73" r="35.41"/><polygon class="cls-2" points="523.79 70.3 519.07 106.89 558.01 121.05 566.28 79.75 523.79 70.3"/><path class="cls-3" d="M545.62,106.3s-20-9.88-24.16-17.92l-8.88,8.48s-63.73-5.9-73.18,26-1.18,147.53-1.18,147.53-13,51.93-9.44,53.11S476,345.88,537.36,334.08c0,0,27.15-4.72,31.87-1.18s-2.36-56.65-2.36-56.65,47.2-106.22,38.94-119.2S561,116.92,561,116.92l2.37-13S546.8,111,545.62,106.3Z"/><path class="cls-3" d="M448.85,114.56s-21.25,10.62-24.79,27.15-36.58,153.42-33,161.68,2.36,18.89,2.36,18.89l30.68-3.54s-5.9-8.27-2.36-11.81,7.08-15.34,4.72-20.06-4.72,3.54,8.26-11.8S477.17,119.28,448.85,114.56Z"/><path class="cls-3" d="M598.73,154.69s10,.59,12.39,17.11,6.49,118.61,6.49,118.61,15.35,33,9.45,37.77S624.7,340,624.7,340l-21.25,5.9-46-72Z"/><path class="cls-4" d="M432.32,318.74s-7.08,1.18-7.08,27.14-13,106.22-4.72,119.2S430,594.9,430,594.9s22.43,9.44,41.31-21.24l2.36-16.52,4.72-80.26,18.88-100.31,26,110.93s-3.54,133.37,9.44,133.37,37.77-10.62,37.77-10.62,5.9-11.81,3.54-17.71-4.72-4.72-2.36-9.44,5.9-127.46,5.9-127.46-4.72-126.28-10.62-129.82S432.32,318.74,432.32,318.74Z"/><path class="cls-1" d="M432.32,590.18l-18.88,20.07s-34.23,31.86-4.72,33,46-18.88,46-21.24,1.18-10.62,9.44-10.62,28.32-20.07,23.6-28.33-18.88-11.8-18.88-11.8Z"/><path class="cls-1" d="M533.82,616.15s-14.16,28.32-5.9,34.22,10.62,8.26,10.62,8.26,7.08-1.18,5.9,9.45,42.49,16.52,44.85,8.26,1.18-24.79-3.54-29.51-18.88-37.76-18.88-37.76S551.52,591.36,533.82,616.15Z"/><path class="cls-5" d="M586.08,28.3l6.67-.95s-9.29-17.09-27.26-20.19L571.8,2.9s-11-7.83-25.13,2.24c-7.45,5.29-16.09,11.54-22.45,19.4L517.71,23,519,29.6l-11,3.65,10,1.31a34.21,34.21,0,0,0-2.69,9.86A13.23,13.23,0,0,0,518,54h0s11.35-13.75,11.94-16.19l-1.48,6.08s7.41-4,8.3-7.63L539,41.28,542.3,35l18.8,11.68-2-6.28,12.26,4.93L568,37.43s12.43,11.41,11.35,18.23S581,69.85,581,69.85,599.86,41.34,586.08,28.3Z"/><rect class="cls-1" x="723.92" y="429.45" width="189" height="2.26"/><rect class="cls-6" x="160.9" y="603.71" width="45.56" height="45.56"/><path class="cls-1" d="M200.46,643.27h-48V595.32h48Zm-45.56-2.4h43.16V597.71H154.9Z"/><rect class="cls-7" x="231.81" y="210.21" width="30.91" height="29.84" transform="translate(-64.56 104.35) rotate(-21.14)"/><path class="cls-1" d="M261.85,231.27,231.5,243l-11.33-29.3L250.52,202ZM232.45,241l27.32-10.57L249.57,204l-27.31,10.56Z"/><rect class="cls-7" x="752.02" y="519.72" width="29.84" height="30.91" transform="translate(-132.33 278.43) rotate(-18.97)"/><path class="cls-1" d="M760.25,549.52l-10.58-30.77,29.71-10.21L790,539.31Zm-8.57-29.74,9.53,27.69,26.73-9.19-9.52-27.69Z"/><path class="cls-4" d="M143.34,399.62c16.9.36,30.35,12.61,30.35,12.61s-14,11.67-30.86,11.3-30.35-12.61-30.35-12.61S126.44,399.26,143.34,399.62Z"/><path class="cls-1" d="M58.36,341.92c15.27,7.26,32.78,2.34,32.78,2.34s-7.25-16.69-22.52-23.94S35.84,318,35.84,318,43.09,334.67,58.36,341.92Z"/><path class="cls-4" d="M59.91,334.71c16.84-1.54,31.58,9.12,31.58,9.12S78.92,357,62.09,358.53s-31.58-9.12-31.58-9.12S43.07,336.25,59.91,334.71Z"/><path class="cls-4" d="M121.63,337.63c-1.61,16.83,9,31.61,9,31.61s13.21-12.5,14.83-29.33-9-31.62-9-31.62S123.24,320.8,121.63,337.63Z"/><path class="cls-4" d="M200.93,440.85c-8.84,14.41-5.8,32.35-5.8,32.35s17.36-5.44,26.19-19.86S227.11,421,227.11,421,209.76,426.43,200.93,440.85Z"/><path class="cls-1" d="M175.31,597.6l1.28-.87a40.32,40.32,0,0,1-7.11-22.36c0-11.69,5.78-22.51,11.33-33,1-1.94,2.06-3.87,3.05-5.81a126.06,126.06,0,0,0,9.86-24.77c8.62-32,.14-69.79-22.69-101.05-18.1-24.8-45.1-46.48-82.52-66.29l-.72,1.37c37.2,19.7,64,41.23,82,65.84,22.55,30.88,30.94,68.16,22.44,99.73a125.11,125.11,0,0,1-9.74,24.47c-1,1.92-2,3.85-3,5.79-5.64,10.62-11.48,21.61-11.52,33.69A41.92,41.92,0,0,0,175.31,597.6Z"/><circle class="cls-4" cx="14.76" cy="330.77" r="14.76"/><polygon class="cls-4" points="818.04 417.93 628.11 349.71 662.02 255.3 780.28 226.29 851.95 323.51 818.04 417.93"/><path class="cls-7" d="M795,399.2,653.1,345.1c36.84-49.36,53.32-84.17,53.33-139l141.94,54.11C815.4,307.09,801.61,342.3,795,399.2Z"/><rect class="cls-8" x="766.96" y="216" width="3.66" height="78.7" transform="translate(256.35 882.76) rotate(-69.13)"/><rect class="cls-8" x="761.74" y="229.68" width="3.66" height="78.7" transform="translate(240.21 886.69) rotate(-69.13)"/><rect class="cls-8" x="756.53" y="243.36" width="3.66" height="78.7" transform="translate(224.07 890.63) rotate(-69.13)"/><rect class="cls-8" x="751.31" y="257.04" width="3.66" height="78.7" transform="translate(207.93 894.56) rotate(-69.13)"/><rect class="cls-8" x="746.1" y="270.72" width="3.66" height="78.7" transform="translate(191.79 898.5) rotate(-69.13)"/><rect class="cls-8" x="740.88" y="284.4" width="3.66" height="78.7" transform="translate(175.65 902.43) rotate(-69.13)"/><rect class="cls-8" x="735.67" y="298.08" width="3.66" height="78.7" transform="translate(159.51 906.37) rotate(-69.13)"/><rect class="cls-8" x="730.45" y="311.76" width="3.66" height="78.7" transform="translate(143.37 910.3) rotate(-69.13)"/><polygon class="cls-4" points="813.66 430.14 623.72 361.93 662.02 255.3 742.23 330.5 851.95 323.51 813.66 430.14"/><polygon class="cls-1" points="717.15 396.55 622.44 362.53 645.52 298.28 647.4 298.95 625 361.32 717.82 394.66 717.15 396.55"/><rect class="cls-1" x="661.7" y="314.03" width="11.8" height="29.51" transform="matrix(0.34, -0.94, 0.94, 0.34, 132.51, 845.96)"/><polygon class="cls-4" points="369.52 642.11 220.87 642.03 222.03 558.58 295.91 591.78 370.69 560.65 369.52 642.11"/><rect class="cls-9" x="239.16" y="597.57" width="8.69" height="21.74" transform="translate(-368.28 843.41) rotate(-89.2)"/><polygon class="cls-9" points="371.19 560.54 296.05 598.85 221.64 560.54 221.64 558.33 371.19 558.33 371.19 560.54"/><ellipse class="cls-1" cx="779.79" cy="235.76" rx="9.03" ry="25" transform="translate(281.74 880.43) rotate(-69.13)"/><path class="cls-1" d="M823.56,102.55a38,38,0,0,0-47.56,25c-6.24,20,10.75,93.4,10.75,93.4s55.59-50.8,61.82-70.84A38,38,0,0,0,823.56,102.55ZM806.94,156a18,18,0,1,1,22.53-11.85A18,18,0,0,1,806.94,156Z"/></svg>