<svg xmlns="http://www.w3.org/2000/svg" width="25" height="25" viewBox="0 0 25 25">
  <path id="instagram" d="M16.667,12.5A4.168,4.168,0,0,0,12.5,8.333,4.168,4.168,0,0,0,8.333,12.5,4.168,4.168,0,0,0,12.5,16.667,4.168,4.168,0,0,0,16.667,12.5Zm2.246,0A6.39,6.39,0,0,1,12.5,18.912,6.39,6.39,0,0,1,6.088,12.5,6.39,6.39,0,0,1,12.5,6.088,6.39,6.39,0,0,1,18.912,12.5ZM20.67,5.827a1.5,1.5,0,1,1-2.555-1.058A1.5,1.5,0,0,1,20.67,5.827ZM12.5,2.246l-1.245-.008q-1.131-.008-1.717,0t-1.571.049a12.835,12.835,0,0,0-1.676.162,6.468,6.468,0,0,0-1.163.3A4.257,4.257,0,0,0,2.751,5.127a6.532,6.532,0,0,0-.3,1.164,12.835,12.835,0,0,0-.162,1.676q-.04.985-.049,1.571t0,1.717q.008,1.131.008,1.245t-.008,1.245q-.008,1.131,0,1.717t.049,1.571a12.835,12.835,0,0,0,.162,1.676,6.493,6.493,0,0,0,.3,1.163,4.257,4.257,0,0,0,2.376,2.376,6.531,6.531,0,0,0,1.164.3,12.836,12.836,0,0,0,1.676.163q.985.04,1.571.049t1.717,0l1.245-.008,1.245.008q1.131.008,1.717,0t1.571-.049a12.834,12.834,0,0,0,1.676-.163,6.532,6.532,0,0,0,1.164-.3,4.257,4.257,0,0,0,2.376-2.376,6.532,6.532,0,0,0,.3-1.164,12.836,12.836,0,0,0,.163-1.676q.04-.985.049-1.571t0-1.717q-.008-1.131-.008-1.245t.008-1.245q.008-1.131,0-1.717t-.049-1.571a12.835,12.835,0,0,0-.163-1.676,6.407,6.407,0,0,0-.3-1.163,4.257,4.257,0,0,0-2.376-2.376,6.532,6.532,0,0,0-1.164-.3,12.835,12.835,0,0,0-1.676-.162q-.985-.04-1.571-.049t-1.717,0L12.5,2.247ZM25,12.5q0,3.727-.081,5.16A7.634,7.634,0,0,1,22.9,22.9a7.634,7.634,0,0,1-5.241,2.018Q16.227,25,12.5,25t-5.16-.081A7.634,7.634,0,0,1,2.1,22.9,7.634,7.634,0,0,1,.081,17.66Q0,16.227,0,12.5T.081,7.34A7.634,7.634,0,0,1,2.1,2.1,7.634,7.634,0,0,1,7.34.081Q8.773,0,12.5,0t5.16.081A7.634,7.634,0,0,1,22.9,2.1,7.634,7.634,0,0,1,24.919,7.34Q25,8.773,25,12.5Z" fill="#c8c3ce"/>
</svg>
