<svg xmlns="http://www.w3.org/2000/svg" width="18.26" height="14.203" viewBox="0 0 18.26 14.203">
  <path id="FontAwsome_shopping-basket_" data-name="FontAwsome (shopping-basket)" d="M18.26,37.83v.507a.761.761,0,0,1-.761.761h-.254l-.828,5.795A1.522,1.522,0,0,1,14.912,46.2H3.349a1.522,1.522,0,0,1-1.506-1.306L1.014,39.1H.761A.761.761,0,0,1,0,38.338V37.83a.761.761,0,0,1,.761-.761H2.9l3.385-4.654a1.014,1.014,0,1,1,1.641,1.193L5.4,37.07h7.451l-2.517-3.461a1.014,1.014,0,0,1,1.641-1.193l3.385,4.655H17.5A.761.761,0,0,1,18.26,37.83ZM9.891,43.41V39.859a.761.761,0,0,0-1.522,0V43.41a.761.761,0,1,0,1.522,0Zm3.551,0V39.859a.761.761,0,0,0-1.522,0V43.41a.761.761,0,1,0,1.522,0Zm-7.1,0V39.859a.761.761,0,0,0-1.522,0V43.41a.761.761,0,1,0,1.522,0Z" transform="translate(0 -31.997)" fill="#fff"/>
</svg>
