<svg xmlns="http://www.w3.org/2000/svg" viewBox="0 0 154.02 206.36"><defs><style>.cls-1{fill:#e0dede;}.cls-2,.cls-4{fill:#fff;}.cls-3{fill:#a4c755;}.cls-4{opacity:0.35;}.cls-5{fill:#ffe852;}.cls-6{fill:#ff9f94;}.cls-7{fill:#ff6d5c;}.cls-8{fill:#000d24;}.cls-9{fill:#94bcf2;}</style></defs><g id="Layer_2" data-name="Layer 2"><g id="Layer_1-2" data-name="Layer 1"><path class="cls-1" d="M35.52,66.47l-1.59-5c-.46,0-.93,0-1.39,0l-1.59,5-.8-.08a34.38,34.38,0,0,1-4.23-.66l-.79-.18,0-5.21c-.44-.13-.88-.27-1.31-.43l-3.05,4.23-.74-.32a33.42,33.42,0,0,1-3.82-1.94l-.69-.42,1.63-5q-.57-.39-1.11-.81l-4.21,3.08-.6-.53a33.33,33.33,0,0,1-3-3l-.53-.61,3.08-4.2c-.28-.36-.55-.73-.82-1.12L5,50.92l-.41-.69a33.36,33.36,0,0,1-1.95-3.81l-.32-.74,4.23-3c-.15-.44-.29-.88-.43-1.32l-5.2,0-.18-.78a34.28,34.28,0,0,1-.67-4.24L0,35.52l5-1.59c0-.23,0-.46,0-.7s0-.46,0-.69L0,31l.07-.8a34.42,34.42,0,0,1,.67-4.23l.18-.79,5.2,0c.14-.44.28-.88.43-1.31L2.32,20.79l.32-.74a33.5,33.5,0,0,1,1.95-3.82L5,15.54,10,17.17c.27-.38.54-.75.82-1.11L7.69,11.85l.53-.6a33.33,33.33,0,0,1,3-3l.6-.53,4.21,3.08c.36-.28.73-.55,1.11-.82L15.54,5l.69-.41a34.35,34.35,0,0,1,3.82-1.95l.74-.32,3.05,4.23,1.31-.43,0-5.2.79-.18A34.12,34.12,0,0,1,30.15.07L31,0l1.59,5c.46,0,.93,0,1.39,0l1.59-5,.79.07a34.28,34.28,0,0,1,4.24.67l.78.18,0,5.2,1.32.43,3-4.23.74.32a33.36,33.36,0,0,1,3.81,1.95l.69.41L49.29,10c.38.27.76.54,1.12.82l4.2-3.08.61.53a36.1,36.1,0,0,1,3,3l.53.6L55.7,16.06q.42.54.81,1.11l5-1.63.41.69a32,32,0,0,1,2,3.82l.32.74-4.23,3.05c.16.43.3.87.43,1.31l5.21,0,.17.79a32.61,32.61,0,0,1,.67,4.23l.08.8-5,1.59c0,.23,0,.46,0,.69s0,.47,0,.7l5,1.59-.08.79a32.76,32.76,0,0,1-.67,4.24l-.17.78-5.21,0c-.13.44-.27.88-.43,1.32l4.23,3-.32.74a31.82,31.82,0,0,1-2,3.81l-.41.69-5-1.63c-.26.39-.53.76-.81,1.12l3.08,4.2-.53.61a34.66,34.66,0,0,1-3,3l-.61.53-4.2-3.08c-.36.28-.74.55-1.12.81l1.63,5-.69.42a33.28,33.28,0,0,1-3.81,1.94l-.74.32-3-4.23c-.44.16-.88.3-1.32.43l0,5.21-.78.18a34.25,34.25,0,0,1-4.24.66Zm-.16-7,1.57,4.87c.8-.1,1.6-.22,2.4-.38l0-5.12.74-.2a24.42,24.42,0,0,0,2.59-.84l.72-.28,3,4.16c.73-.34,1.45-.71,2.16-1.1l-1.6-4.87.64-.42a25.82,25.82,0,0,0,2.2-1.6l.6-.49,4.13,3c.59-.55,1.17-1.13,1.72-1.72l-3-4.13.49-.6a25.82,25.82,0,0,0,1.6-2.2l.42-.64,4.87,1.6c.39-.71.76-1.43,1.1-2.16l-4.16-3,.28-.72a25.18,25.18,0,0,0,.84-2.59l.2-.74,5.12,0c.16-.8.28-1.6.38-2.4l-4.87-1.57,0-.76c0-.46,0-.91,0-1.37s0-.91,0-1.36l0-.77,4.87-1.56c-.1-.8-.22-1.6-.38-2.4l-5.12,0-.2-.74a24.42,24.42,0,0,0-.84-2.59l-.28-.72,4.16-3c-.34-.73-.71-1.45-1.1-2.16l-4.87,1.6-.42-.64a25.82,25.82,0,0,0-1.6-2.2l-.49-.6,3-4.13c-.55-.6-1.13-1.17-1.72-1.72l-4.13,3-.6-.48a25.82,25.82,0,0,0-2.2-1.6l-.64-.42,1.6-4.87c-.71-.4-1.43-.77-2.16-1.1L43.36,9l-.72-.27a26,26,0,0,0-2.59-.84l-.74-.2,0-5.12c-.8-.16-1.6-.29-2.4-.38L35.36,7,34.6,7c-.91,0-1.83,0-2.73,0L31.1,7,29.54,2.15c-.8.09-1.6.22-2.4.38l0,5.12-.74.2a24.42,24.42,0,0,0-2.59.84L23.11,9l-3-4.15c-.73.33-1.45.7-2.16,1.1l1.6,4.87-.64.42a25.82,25.82,0,0,0-2.2,1.6l-.6.48-4.13-3c-.6.55-1.17,1.12-1.72,1.72l3,4.13-.48.6a25.82,25.82,0,0,0-1.6,2.2l-.42.64L5.91,18c-.4.71-.76,1.43-1.1,2.16l4.15,3-.27.72a24.42,24.42,0,0,0-.84,2.59l-.2.74-5.12,0c-.16.8-.29,1.6-.38,2.4L7,31.1l0,.77c0,.45,0,.91,0,1.36s0,.91,0,1.37l0,.76L2.15,36.93c.09.8.22,1.6.38,2.4l5.12,0,.2.74a25.18,25.18,0,0,0,.84,2.59l.27.72-4.15,3c.33.73.7,1.45,1.1,2.16l4.87-1.6.42.64a25.82,25.82,0,0,0,1.6,2.2l.48.6-3,4.13c.55.59,1.12,1.17,1.72,1.72l4.13-3,.6.49a25.82,25.82,0,0,0,2.2,1.6l.64.42L18,60.56c.71.39,1.43.76,2.16,1.1l3-4.16.72.28a24.42,24.42,0,0,0,2.59.84l.74.2,0,5.12c.8.16,1.6.28,2.4.38l1.56-4.87.77,0c.9,0,1.82,0,2.73,0Zm-2.13-3.54A22.68,22.68,0,1,1,55.91,33.23,22.7,22.7,0,0,1,33.23,55.91Zm0-43.35A20.68,20.68,0,1,0,53.91,33.23,20.7,20.7,0,0,0,33.23,12.56Z"/><path class="cls-1" d="M88.57,48.31l-.92,0-.72,0-1.3-4.44a19.72,19.72,0,0,1-2.93-.67l-3.09,3.46-.67-.29a24.59,24.59,0,0,1-3-1.59l-.61-.38,1.1-4.51a18.46,18.46,0,0,1-2.2-2l-4.41,1.45-.43-.58a23.21,23.21,0,0,1-1.81-2.88l-.35-.64,3.21-3.35a19.07,19.07,0,0,1-.89-2.87L65,28l-.08-.72c-.06-.56-.11-1.12-.13-1.69s0-1.14,0-1.7l0-.73,4.45-1.3A18.68,18.68,0,0,1,70,18.93l-3.46-3.1.29-.66a22.75,22.75,0,0,1,1.59-3l.38-.61,4.51,1.1a20.12,20.12,0,0,1,2-2.2L73.85,6l.58-.43A23.09,23.09,0,0,1,77.3,3.8l.64-.34L81.3,6.67a19.31,19.31,0,0,1,2.86-.89l1-4.53.72-.08c.56-.06,1.13-.11,1.7-.13s1.14,0,1.7,0l.72,0,1.3,4.44a19.72,19.72,0,0,1,2.93.67l3.1-3.46.66.29a23.2,23.2,0,0,1,3,1.59l.62.38-1.11,4.51a19.33,19.33,0,0,1,2.2,2l4.41-1.45.43.58a24.52,24.52,0,0,1,1.82,2.88l.34.64-3.21,3.35a19.07,19.07,0,0,1,.89,2.87l4.53.95.08.72c.06.56.11,1.12.13,1.69s0,1.14,0,1.7l0,.73-4.45,1.3a19.85,19.85,0,0,1-.66,2.92l3.45,3.1-.29.66a23.94,23.94,0,0,1-1.58,3l-.39.61-4.51-1.1a20.12,20.12,0,0,1-2,2.2L103,43.29l-.58.43a23.09,23.09,0,0,1-2.87,1.81l-.64.34-3.35-3.21a18.64,18.64,0,0,1-2.87.89l-1,4.53-.72.08c-.56.07-1.13.11-1.7.14Zm-.13-2h.84l.83,0,.92-4.4.66-.12a16.81,16.81,0,0,0,3.71-1.16l.61-.26,3.26,3.11q.72-.42,1.41-.9l-1.4-4.27.5-.44A17.82,17.82,0,0,0,102.42,35l.4-.54,4.37,1.07c.28-.48.54-1,.78-1.48l-3.35-3,.22-.63a17.19,17.19,0,0,0,.86-3.79l.07-.66,4.32-1.26c0-.28,0-.56,0-.84s0-.56,0-.83l-4.4-.93-.12-.65a17.59,17.59,0,0,0-1.15-3.72l-.27-.61,3.11-3.25c-.28-.48-.58-.95-.89-1.41L102,13.83l-.43-.5a17.47,17.47,0,0,0-2.86-2.64l-.53-.4,1.07-4.37c-.48-.28-1-.54-1.48-.78l-3,3.35-.63-.22a17.32,17.32,0,0,0-3.79-.86l-.67-.08L88.44,3h-.83l-.84.06-.92,4.39-.66.13a17.12,17.12,0,0,0-3.71,1.15L80.87,9,77.62,5.91c-.49.28-1,.58-1.42.9l1.41,4.27-.51.44a17.82,17.82,0,0,0-2.64,2.85l-.39.54-4.38-1.07c-.28.48-.54,1-.78,1.48l3.36,3-.22.63a16.78,16.78,0,0,0-.87,3.79l-.07.66L66.8,24.66c0,.28,0,.56,0,.84s0,.56,0,.84l4.4.92.12.65a17.59,17.59,0,0,0,1.15,3.72l.27.61-3.11,3.25c.28.48.58.95.89,1.41l4.28-1.4.44.5a16.66,16.66,0,0,0,2.85,2.65l.53.39-1.06,4.37q.72.42,1.47.78l3-3.35.63.22a17.27,17.27,0,0,0,3.8.86l.66.08Zm0-5.8a16.35,16.35,0,1,1,.62,0Zm0-29.68h-.54a13.84,13.84,0,1,0,.54,0Z"/><path class="cls-2" d="M101,159.41h-.93l-.72,0-1.3-4.44a18.54,18.54,0,0,1-2.93-.67l-3.09,3.46-.67-.29a23.2,23.2,0,0,1-3-1.59l-.61-.38,1.1-4.51a19.25,19.25,0,0,1-2.2-2l-4.41,1.44-.43-.58A23.85,23.85,0,0,1,80,146.91l-.35-.64,3.21-3.36a19.31,19.31,0,0,1-.89-2.86l-4.53-1-.08-.72c-.06-.56-.11-1.13-.13-1.7s0-1.14,0-1.7l0-.72,4.45-1.3a18.54,18.54,0,0,1,.67-2.93l-3.46-3.09.29-.67a23.28,23.28,0,0,1,1.59-3l.38-.62,4.51,1.11a19.25,19.25,0,0,1,2-2.2l-1.44-4.41.58-.43a25.25,25.25,0,0,1,2.87-1.82l.64-.34,3.36,3.21a19.31,19.31,0,0,1,2.86-.89l1-4.53.72-.08c.56-.06,1.13-.11,1.7-.13s1.14,0,1.7,0l.72,0,1.3,4.45a19.69,19.69,0,0,1,2.93.66l3.09-3.45.67.29a23.14,23.14,0,0,1,3,1.58l.62.39-1.11,4.51a19.25,19.25,0,0,1,2.2,2l4.41-1.44.43.58a23.6,23.6,0,0,1,1.82,2.87l.34.64-3.21,3.35a19.81,19.81,0,0,1,.89,2.87l4.53.95.08.72c.06.56.11,1.13.13,1.7s0,1.14,0,1.7l0,.72-4.45,1.3a18.54,18.54,0,0,1-.67,2.93l3.46,3.09-.29.67a24.52,24.52,0,0,1-1.58,3l-.39.62-4.51-1.11a19.25,19.25,0,0,1-2,2.2l1.44,4.41-.58.43a23.09,23.09,0,0,1-2.87,1.81l-.64.35L108,153.77a19.81,19.81,0,0,1-2.87.89l-1,4.53-.72.08c-.56.06-1.13.11-1.7.13Zm-.14-2h.83l.84-.05.92-4.4.66-.12a17.69,17.69,0,0,0,3.71-1.15l.61-.27,3.26,3.11c.48-.28,1-.58,1.41-.89l-1.4-4.28.5-.44a17,17,0,0,0,2.64-2.85l.4-.53,4.37,1.07c.28-.49.54-1,.78-1.48l-3.35-3,.22-.63a17.4,17.4,0,0,0,.86-3.8l.07-.66,4.32-1.26c0-.28,0-.55,0-.84s0-.55-.05-.83l-4.4-.92-.12-.66a17.33,17.33,0,0,0-1.15-3.71l-.27-.61,3.11-3.26c-.28-.48-.58-1-.89-1.41l-4.28,1.4-.43-.5a17.47,17.47,0,0,0-2.86-2.64l-.53-.4,1.07-4.37c-.48-.28-1-.54-1.48-.78l-3,3.35-.63-.22a17.4,17.4,0,0,0-3.8-.86l-.66-.07-1.26-4.32-.83,0-.84,0-.92,4.4-.66.12a17.69,17.69,0,0,0-3.71,1.15l-.61.27L90.06,117c-.49.28-1,.58-1.42.89l1.41,4.28-.51.43a17.47,17.47,0,0,0-2.64,2.86l-.4.53-4.37-1.07c-.28.48-.54,1-.78,1.48l3.35,3-.22.63a17.45,17.45,0,0,0-.86,3.79l-.07.67-4.31,1.26c0,.27,0,.55,0,.83s0,.56,0,.84l4.4.92.12.66A17.69,17.69,0,0,0,85,142.73l.27.61-3.11,3.25c.28.49.58,1,.89,1.42l4.28-1.41.43.51a17.47,17.47,0,0,0,2.86,2.64l.53.4-1.07,4.37c.49.28,1,.54,1.48.78l3-3.35.63.22A17.4,17.4,0,0,0,99,153l.66.07Zm0-5.8a15.73,15.73,0,1,1,.63,0Zm0-29.68h-.54a13.84,13.84,0,1,0,.54,0Z"/><path class="cls-3" d="M38.8,148.19a40.36,40.36,0,0,0,1.67,15.74c4.05,11.58,10,21,17.67,28.14A53,53,0,0,0,82.7,205a61.12,61.12,0,0,0,35-2.83c11-4.24,20.21-11.27,25.84-19.79s9.18-20.07,10.17-32.79a93,93,0,0,0-.47-18.94,84.34,84.34,0,0,0-4.56-18.74,64.23,64.23,0,0,0-14-22.63,53.32,53.32,0,0,0-24.12-14.21c-.72-.2-1.45-.39-2.16-.55a40.78,40.78,0,0,0-25.53,2.39C75.71,80,69,85,62.77,92a91.26,91.26,0,0,0-12.19,17.65A108.27,108.27,0,0,0,42.49,129,84.56,84.56,0,0,0,38.8,148.19ZM46,130.08a104.47,104.47,0,0,1,7.82-18.75,87.87,87.87,0,0,1,11.69-17A54.36,54.36,0,0,1,84.3,80.24a37.16,37.16,0,0,1,23.3-2.19c.66.15,1.32.32,2,.5a49.76,49.76,0,0,1,22.5,13.26,60.57,60.57,0,0,1,13.22,21.35,80.65,80.65,0,0,1,4.36,17.93,89.29,89.29,0,0,1,.45,18.2c-1,12.11-4.35,23.15-9.58,31.06s-13.77,14.43-24.1,18.41a57.45,57.45,0,0,1-32.93,2.67,49.31,49.31,0,0,1-22.89-12c-7.24-6.67-12.86-15.65-16.7-26.66C41.22,155,42,143.14,46,130.08Z"/><path class="cls-3" d="M46.2,161.93c-8.33-23.85,20.16-92.91,62.73-81s46.72,72.17,29.58,98.13S64.87,215.39,46.2,161.93Z"/><path class="cls-4" d="M138.08,179.64c-15.1-15.21-37.58-40.81-27.92-49.85,11.77-11-4.7-25.83-24.75-47.38C56.49,94.68,39.52,142.82,46.2,161.93,64.72,215,120.45,205.13,138.08,179.64Z"/><path class="cls-5" d="M82.46,112.21c-4.38,3.43-17.24,16.13-18,24.84s-3.61,10.25-9.8,16-2.82,10.71.56,17.26S69.39,179.9,76,175.86s23.9.39,31.22-5.45,12.58-3.5,13.2-12.62,1.4-29.72-2.59-36S82.46,112.21,82.46,112.21Z"/><path class="cls-6" d="M86.37,149.64c.59,4.55,2.52,17.06.63,19.92s-16,7.9-16,9.47c0,3.1,9.53,15.34,26.22,15.1s24.89-16.4,24.85-17.42c-.08-2.06-8.87-3.05-12.37-4.87s-5.69-3.27-6-6.94.62-13.72.56-16.36C104.13,143.42,85.82,145.35,86.37,149.64Z"/><path class="cls-7" d="M104,166.5a8.11,8.11,0,0,1-.31-1.6A82.6,82.6,0,0,1,104,155l-14.29-8.36c-2.06.73-3.45,1.77-3.29,3,.07.56.16,1.24.27,2,1.11,2.78,4.24,9.24,9.61,12.4A19.07,19.07,0,0,0,104,166.5Z"/><path class="cls-6" d="M98.05,111.43c-15.15.73-20.77,11-16.37,27.45-.14.13.47,1.68.21,1.64-3.17-.52-4.26.76-3,5.09,1,3.43,3.22,6.48,5.09,6.15A9.48,9.48,0,0,0,87,150.52c6.59,9.12,15.29,14,19.09,13,3.15-.78,11-6.15,11.32-22.76C117.78,123.08,111.58,110.78,98.05,111.43Z"/><path class="cls-7" d="M96.43,177.77c-.62.82-1.62-2-2.26-1.92s.34,4.17,2.36,4,4.17-2.38,3.26-3.09S97.6,176.22,96.43,177.77Z"/><path class="cls-7" d="M84.81,148.18c-.81-.57-1.32.66-2.17.53s-2.92-4-2.37-5,2.17-.53,2.8.11S86.75,149.52,84.81,148.18Z"/><path class="cls-8" d="M83.47,143.51c-2.13-1.83-3.69-1.71-5.28,1.62s3.33,7.69,5.29,6.22,3.61-1.73,2.32-6C85.32,143.79,84.77,144.64,83.47,143.51Z"/><path class="cls-8" d="M85.8,145.34c-1.31-3.11-3.54-7.05-5.88-6.17a2.27,2.27,0,0,0-1.51,3s.45-1.64,1.58-1.69,2.67,2.64,2.67,2.64,0,3.49.61,4.43S85.8,145.34,85.8,145.34Z"/><path class="cls-2" d="M94.32,151.05c-.72.85,3.79,10.42,11.69,7.88s6.93-10.13,6.49-10.66S95.1,150.13,94.32,151.05Z"/><path class="cls-8" d="M84.92,147.08A39.37,39.37,0,0,0,94,155c2.24,1.39,5.53,3.52,8.14,2a.48.48,0,0,0-.37-.88c-3.38.66-6.94-2.06-9.55-4-2.41-1.74-4.63-3.72-7.06-5.43-.22-.16-.43.17-.27.36Z"/><path class="cls-8" d="M100.59,155.27c-.77.3-.36,2.43.56,2.8s5.18-.95,5.35-1.68S105.66,153.37,100.59,155.27Z"/><path class="cls-5" d="M102,120.7c-2.33,5.63-5.15,10.47-10.09,14.56-4.14,3.42-10.79,4.74-11.36,5s-1.42,2.13-2.68-6.62.29-17.59,4.58-21.41c6-5.31,12.85-1.77,12.85-1.77s5.37-2.81,10.11-1.67,13.17,9.31,13.42,17.29-1.43,10.69-1.43,10.69a47.21,47.21,0,0,1-8-6.8A73,73,0,0,1,102,120.7Z"/><path class="cls-2" d="M107,170.31a12.9,12.9,0,0,0,5.08,1.94c2.12.32,10.47,3.5,11.56,4.46s8,10.11,6.4,11.49a56.17,56.17,0,0,1-34.25,12.26C83,200.46,72,195.54,66,190.75c-1.62-1.3,4.12-12.41,4.49-13.14s15.11-7.18,15.11-7.18l6.15,10.36,5.28,3.45Z"/><path class="cls-8" d="M95.1,185.12c.32,1.63-.55,4.41,1.26,4.38s4,.37,4.11-.58a27.83,27.83,0,0,0-.46-4.48S94.87,183.92,95.1,185.12Z"/><path class="cls-9" d="M104,166.5c1.55.54-6.93,17.74-6.93,17.74l3.66,2.37a1.91,1.91,0,0,0,2.87-1.07c1.32-4.58,4-14,4.21-14.73C108,169.86,104,166.5,104,166.5Z"/><path class="cls-9" d="M87.3,167.34c-.68.48-2.87,3-2.5,3.61s4.51,10.58,6.67,15.76a1.91,1.91,0,0,0,3.25.45l2.33-2.92Z"/><path class="cls-8" d="M102.33,195.39a42.83,42.83,0,0,0-3.52-7.19l-2.66.5s-2.91,7.41-3.08,9.23a14,14,0,0,0,0,2.53,25,25,0,0,0,2.74,0,37.17,37.17,0,0,0,7.42-.56A32.8,32.8,0,0,0,102.33,195.39Z"/><path class="cls-7" d="M103.52,137.53c-.6,1.1-1.12,8.8-.36,9.4s3.93-.18,4.28-1.33S104.13,136.42,103.52,137.53Z"/><path class="cls-2" d="M92.74,85.4l.39.12a7.48,7.48,0,0,1,1.39.59c.5.26,1,.52,1.34.77a5.58,5.58,0,0,1,.67.48.41.41,0,0,1,.08.45,2.78,2.78,0,0,1-.49.74,6.68,6.68,0,0,1-.59.66.35.35,0,0,1-.38.07,2.07,2.07,0,0,1-.58-.4,5.45,5.45,0,0,0-1.39-.81,1.42,1.42,0,0,0-.36,0c-.12,0-.19,0-.21.08s0,.14.09.24a4.75,4.75,0,0,0,1.29.73,4.77,4.77,0,0,1,1.37.9,2.32,2.32,0,0,1,.57,1.15,2.06,2.06,0,0,1-.12,1.21,2.7,2.7,0,0,1-1,1.24,3.52,3.52,0,0,1-1.58.65A4.92,4.92,0,0,1,91,94a9,9,0,0,1-2.35-1.14A6.08,6.08,0,0,1,87,91.21a.94.94,0,0,1-.2-.52c0-.09.19-.24.5-.43a10.18,10.18,0,0,1,1-.53,1.75,1.75,0,0,1,.6-.22,2.2,2.2,0,0,1,.44.44A4.31,4.31,0,0,0,91,91.12l.26.08a1,1,0,0,0,.52,0A.36.36,0,0,0,92,91c0-.15,0-.32-.22-.5a4.07,4.07,0,0,0-1.11-.63,4.06,4.06,0,0,1-2.48-2.2,1.43,1.43,0,0,1,0-.82,1.86,1.86,0,0,1,.6-.93,3.24,3.24,0,0,1,1.2-.66,3.59,3.59,0,0,1,1.49-.16A7.68,7.68,0,0,1,92.74,85.4Z"/><path class="cls-2" d="M100.61,88.64a6.26,6.26,0,0,1,2,1.11s0,.16-.13.38-.29.58-.49.94-.4.75-.59,1.15a5.93,5.93,0,0,0-.64,2,.92.92,0,0,0,.57,1,1,1,0,0,0,1-.07,7.16,7.16,0,0,0,1.69-2.35,7.8,7.8,0,0,1,1-1.63,2.57,2.57,0,0,1,.9.26,11.65,11.65,0,0,1,1.42.68,7.88,7.88,0,0,1,.8.5c.19.15.3.28.31.41a8,8,0,0,1-1.22,2.55,36.11,36.11,0,0,1-2.69,4.24c-.16.11-.48,0-1-.23-.2-.12-.57-.39-1.12-.71-.18-.11-.35-.2-.46-.28a2.48,2.48,0,0,1-.3-.25.58.58,0,0,1-.22-.57c0-.25-.07-.35-.24-.28a2.68,2.68,0,0,1-.85,0,6.15,6.15,0,0,1-1.07-.18,4.13,4.13,0,0,1-.57-.22,4.25,4.25,0,0,1-1.3-.94,2.52,2.52,0,0,1-.67-1.22,3.6,3.6,0,0,1,0-.92,5.61,5.61,0,0,1,.44-1.53l.35-.86c.92-2.17,1.56-3.25,1.93-3.23A4.88,4.88,0,0,1,100.61,88.64Z"/><path class="cls-2" d="M111.11,94.55l.56.36A11.1,11.1,0,0,1,113,96a.43.43,0,0,1,0,.56c-.12.17-.16.27-.11.31l.72.32a6.61,6.61,0,0,1,1.27.72,4.79,4.79,0,0,1,1.49,1.75,3.14,3.14,0,0,1,.27,1,4.94,4.94,0,0,1,.07,1.1,3,3,0,0,1-.69,1.58,3.77,3.77,0,0,1-2.81,1.28,4.84,4.84,0,0,1-1.49-.1,3.48,3.48,0,0,1-1.19-.59,8.56,8.56,0,0,1-1.37-1.47c-.07,0-.38.32-.94,1.08l-.85,1.18-.28,0-.26,0-1.18-.81c-.55-.39-.9-.62-1-.71a.58.58,0,0,1-.23-.29,2.75,2.75,0,0,1,.38-.84c.17-.31.91-1.52,2.21-3.63,1.76-2.85,2.69-4.32,2.78-4.38a.44.44,0,0,1,.37,0A6.07,6.07,0,0,1,111.11,94.55Zm2.11,4.72a1.58,1.58,0,0,0-.38-.21,2.76,2.76,0,0,0-.76-.07l-.52,0-.31.61a4.25,4.25,0,0,0-.31.72.46.46,0,0,0,.11.36,1.83,1.83,0,0,0,.4.38,1.62,1.62,0,0,0,1.09.34,1.2,1.2,0,0,0,.93-.5,1.11,1.11,0,0,0,.22-1.11A1.23,1.23,0,0,0,113.22,99.27Z"/><path class="cls-2" d="M120.82,102l.49.45a10.87,10.87,0,0,1,1.18,1.24.43.43,0,0,1-.11.56c-.14.14-.19.24-.15.28l.65.43a6.39,6.39,0,0,1,1.13.92,4.76,4.76,0,0,1,1.19,2,3.68,3.68,0,0,1,.1,1,4.63,4.63,0,0,1-.12,1.09,3,3,0,0,1-.93,1.45,3.76,3.76,0,0,1-3,.8,4.76,4.76,0,0,1-1.46-.34,3.28,3.28,0,0,1-1.07-.78,9.07,9.07,0,0,1-1.11-1.66q-.09-.09-1.11.9c-.41.42-.62.62-1,1h-.28l-.26,0c-.4-.4-.61-.6-1-1s-.78-.75-.88-.86a.5.5,0,0,1-.17-.32,2.66,2.66,0,0,1,.51-.77c.22-.27,1.15-1.34,2.78-3.21,2.2-2.53,3.36-3.83,3.46-3.87a.44.44,0,0,1,.37,0A6.26,6.26,0,0,1,120.82,102Zm1.3,5a1.39,1.39,0,0,0-.34-.27,2.54,2.54,0,0,0-.74-.2l-.51,0-.41.54a3.71,3.71,0,0,0-.42.67.44.44,0,0,0,0,.38,2.09,2.09,0,0,0,.34.44,1.64,1.64,0,0,0,1,.51,1.23,1.23,0,0,0,1-.35,1.11,1.11,0,0,0,.4-1A1.25,1.25,0,0,0,122.12,107Z"/><path class="cls-2" d="M132,114a10.37,10.37,0,0,1,.77,1.26,6.2,6.2,0,0,1,.64,3,3.16,3.16,0,0,1-.9,2.21,2.23,2.23,0,0,1-.5.37,4.65,4.65,0,0,1-1.88.67,5,5,0,0,1-2-.22,4.85,4.85,0,0,1-1.67-.84,5.57,5.57,0,0,1-1.17-1.25,6.33,6.33,0,0,1-1.1-2.65,6.08,6.08,0,0,1,.09-2.6,3.35,3.35,0,0,1,1-1.79,5.83,5.83,0,0,1,.74-.47,4,4,0,0,1,5,1.16C131.38,113.21,131.69,113.6,132,114Zm-2.27,1.81a.94.94,0,0,0-.4-.35,1.23,1.23,0,0,0-1.38,0,1.4,1.4,0,0,0-.4.5,1.27,1.27,0,0,0,.14,1.36,1.13,1.13,0,0,0,.63.47,1,1,0,0,0,.73,0,.7.7,0,0,0,.19-.1,1.67,1.67,0,0,0,.56-.67,1.19,1.19,0,0,0,.13-.78A1.28,1.28,0,0,0,129.69,115.79Z"/><path class="cls-2" d="M136,120.8a3,3,0,0,1,.56.8,10,10,0,0,1,.61,1.36,1.78,1.78,0,0,1,.17.86.43.43,0,0,1-.16.26s0,0,0,0a2.58,2.58,0,0,0,.45.48,4.24,4.24,0,0,1,1.08,1.38,3.91,3.91,0,0,1,.33,1.64c0,.6-.14,1-.38,1.06a2.6,2.6,0,0,1-1,0,8,8,0,0,1-1.19-.21.61.61,0,0,1-.44-.31,3.72,3.72,0,0,1-.11-.47,3,3,0,0,0-.2-.71,1.49,1.49,0,0,0-1-.86c-.73-.22-1.93.09-3.61.93l-.23.11a2.15,2.15,0,0,1-.53.21.31.31,0,0,1-.3-.12,2.62,2.62,0,0,1-.33-.54,2.92,2.92,0,0,1-.14-.31c-.09-.15-.13-.23-.21-.39a5.82,5.82,0,0,1-.62-1.48.56.56,0,0,1,.14-.38,11.73,11.73,0,0,1,1.16-.73c1-.58,2.15-1.18,3.38-1.8a11.72,11.72,0,0,1,2.08-.94A.78.78,0,0,1,136,120.8Z"/><path class="cls-2" d="M143.47,131.7s.15.4.42,1.22a15,15,0,0,1,.46,1.59,1.16,1.16,0,0,1,0,.5c0,.07-.1.12-.24.16l-.94.23-.57.13-.22,0c.12.42.18.63.29,1.06.06.21.09.36.11.45a4.45,4.45,0,0,1,.13.75c0,.13-.12.24-.31.32a10.9,10.9,0,0,1-1.23.37l-.3.08a3.32,3.32,0,0,1-.68.12.33.33,0,0,1-.29-.18,2.73,2.73,0,0,1-.24-.67c-.15-.55-.23-.82-.39-1.36l-.39.05-.54.11c-1.21.37-1.7.91-1.5,1.63a1.61,1.61,0,0,0,.35.54,2,2,0,0,0,.4.38.25.25,0,0,1,.11.12.84.84,0,0,1-.13.54,3.76,3.76,0,0,1-.52.8c-.22.27-.37.41-.47.43s-.38-.1-.74-.41a6.93,6.93,0,0,1-1-1.11,6,6,0,0,1-1-1.92,3.36,3.36,0,0,1-.17-1.24,4.56,4.56,0,0,1,.37-1.3,4.37,4.37,0,0,1,.92-1.4,5.55,5.55,0,0,1,1.91-1l.39-.14.24-.09a.54.54,0,0,1,.17-.08.15.15,0,0,0,.1-.09l0-.11s0-.13-.05-.3l-.08-.25c-.05-.13-.07-.2-.13-.33-.08-.29-.14-.48-.16-.57a.34.34,0,0,1,.07-.28.78.78,0,0,1,.4-.26c.31-.12.52-.2.64-.23.34-.1.57-.19.66-.22l.38-.11a.68.68,0,0,1,.22,0h.27l.37.85a5.7,5.7,0,0,0,.34.75c0,.06.11.1.15.09.23,0,.62-.17,1.08-.28a2.26,2.26,0,0,1,.77-.12,1,1,0,0,1,.34.45C143.42,131.56,143.47,131.7,143.47,131.7Z"/></g></g></svg>