<svg xmlns="http://www.w3.org/2000/svg" width="25" height="20.309" viewBox="0 0 25 20.309">
  <path id="twitter-bird" d="M25,2.405a10.386,10.386,0,0,1-2.562,2.649q.015.294.015.664a14.732,14.732,0,0,1-2.432,8.065,15.582,15.582,0,0,1-2.936,3.34,13.088,13.088,0,0,1-4.1,2.32,14.96,14.96,0,0,1-5.127.865A14.276,14.276,0,0,1,0,18a11.09,11.09,0,0,0,1.224.071,10.056,10.056,0,0,0,6.371-2.2,4.976,4.976,0,0,1-2.978-1.024,5.041,5.041,0,0,1-1.81-2.538,5.127,5.127,0,0,0,2.316-.086,5,5,0,0,1-2.944-1.767A4.963,4.963,0,0,1,1.008,7.2V7.139a5.062,5.062,0,0,0,2.324.642A5.1,5.1,0,0,1,1.665,5.953a5,5,0,0,1-.616-2.439A5.039,5.039,0,0,1,1.742.937,14.6,14.6,0,0,0,6.419,4.723,14.253,14.253,0,0,0,12.312,6.3a5.015,5.015,0,0,1-.135-1.167A4.941,4.941,0,0,1,13.68,1.5a5.131,5.131,0,0,1,7.37.115A10.215,10.215,0,0,0,24.306.373a4.959,4.959,0,0,1-2.253,2.838A10.25,10.25,0,0,0,25,2.405Z" fill="#c8c3ce"/>
</svg>
