<svg xmlns="http://www.w3.org/2000/svg" width="25" height="17.5" viewBox="0 0 25 17.5">
  <g id="youtube" transform="translate(-3 -7.5)">
    <path id="Path_18" data-name="Path 18" d="M6.75,10h17.5a1.25,1.25,0,0,1,1.25,1.25v10a1.25,1.25,0,0,1-1.25,1.25H6.75A1.25,1.25,0,0,1,5.5,21.25v-10A1.25,1.25,0,0,1,6.75,10ZM3,11.25A3.75,3.75,0,0,1,6.75,7.5h17.5A3.75,3.75,0,0,1,28,11.25v10A3.75,3.75,0,0,1,24.25,25H6.75A3.75,3.75,0,0,1,3,21.25ZM13,12.5l5,3.75L13,20Z" fill="#c8c3ce" fill-rule="evenodd"/>
  </g>
</svg>
