<svg xmlns="http://www.w3.org/2000/svg" viewBox="0 0 142.54 148.67"><defs><style>.cls-1{fill:#e0dede;}.cls-2{fill:#a4c755;}.cls-3{fill:#fff;}.cls-4{fill:#b5d363;}.cls-5{fill:#000d24;}.cls-6{fill:#ff6d5c;}.cls-7{fill:#ffe852;}.cls-8{fill:#ffc400;}.cls-9{fill:#ff9f94;}.cls-10{fill:#3f7cd1;}.cls-11{fill:#374ba8;}.cls-12{fill:#d0e585;}.cls-13{fill:#c4dcff;}</style></defs><g id="Layer_2" data-name="Layer 2"><g id="Layer_1-2" data-name="Layer 1"><path class="cls-1" d="M35.52,93.47l-1.59-5c-.46,0-.93,0-1.39,0l-1.59,5-.8-.07a32.61,32.61,0,0,1-4.23-.67l-.79-.17,0-5.21c-.44-.13-.88-.27-1.31-.43l-3.05,4.23-.74-.32a33.5,33.5,0,0,1-3.82-2l-.69-.41,1.63-5q-.57-.39-1.11-.81l-4.2,3.07-.61-.53a31,31,0,0,1-3-3l-.53-.6,3.08-4.2c-.28-.36-.55-.74-.82-1.12L5,77.93l-.41-.69a32.69,32.69,0,0,1-1.95-3.82l-.32-.73,4.23-3c-.15-.44-.29-.88-.43-1.32l-5.2,0-.18-.78a34.28,34.28,0,0,1-.67-4.24L0,62.52l5-1.59c0-.23,0-.46,0-.69s0-.46,0-.69L0,58l.07-.8a34.12,34.12,0,0,1,.67-4.23l.18-.79,5.2,0c.14-.44.28-.88.43-1.32l-4.23-3,.32-.74a33.5,33.5,0,0,1,1.95-3.82L5,42.55,10,44.18c.27-.38.54-.75.82-1.12l-3.08-4.2.53-.6a33.33,33.33,0,0,1,3-3l.61-.53,4.2,3.07c.36-.27.73-.55,1.11-.81l-1.63-5,.69-.41a33.5,33.5,0,0,1,3.82-2l.74-.32,3.05,4.23c.43-.15.87-.3,1.31-.43l0-5.2.79-.18a34.42,34.42,0,0,1,4.23-.67L31,27,32.54,32c.46,0,.93,0,1.39,0L35.52,27l.79.07a34.28,34.28,0,0,1,4.24.67l.78.18,0,5.2c.44.13.88.28,1.32.43l3-4.23.74.32a33.36,33.36,0,0,1,3.81,2l.69.41-1.63,5c.39.27.76.54,1.12.81l4.2-3.07.6.53a34.77,34.77,0,0,1,3,3l.53.6-3.08,4.2c.28.37.55.74.81,1.12l5-1.63.41.69a32,32,0,0,1,2,3.82l.32.74-4.23,3c.16.44.3.88.43,1.32l5.21,0,.18.79a32.31,32.31,0,0,1,.66,4.23l.08.8-5,1.59c0,.23,0,.46,0,.69s0,.46,0,.69l5,1.59-.08.8a33,33,0,0,1-.66,4.24l-.18.78-5.21,0c-.13.44-.27.88-.43,1.32l4.23,3-.32.73a31.21,31.21,0,0,1-2,3.82l-.41.69-5-1.63c-.26.38-.53.76-.81,1.12l3.08,4.2-.53.6a32.19,32.19,0,0,1-3,3l-.6.53-4.2-3.07c-.36.28-.73.55-1.12.81l1.63,5-.69.41a33.36,33.36,0,0,1-3.81,2l-.74.32-3-4.23c-.44.16-.88.3-1.32.43l0,5.21-.78.17a32.49,32.49,0,0,1-4.24.67ZM27.14,91c.8.15,1.6.28,2.4.38l1.56-4.88.77,0a24.86,24.86,0,0,0,2.73,0l.76,0,1.57,4.88c.8-.1,1.6-.23,2.4-.38l0-5.12.74-.2a26,26,0,0,0,2.59-.84l.72-.28,3,4.16q1.1-.51,2.16-1.11l-1.6-4.86.64-.42c.77-.51,1.51-1,2.2-1.6l.6-.49,4.13,3c.59-.55,1.17-1.13,1.72-1.72l-3-4.13.49-.6a25.82,25.82,0,0,0,1.6-2.2l.42-.65,4.87,1.61c.39-.71.76-1.43,1.1-2.17l-4.16-3,.28-.72a24.42,24.42,0,0,0,.84-2.59l.2-.74h5.12c.16-.8.28-1.6.38-2.39l-4.87-1.57,0-.77c0-.45,0-.9,0-1.36s0-.91,0-1.36l0-.77,4.87-1.56c-.1-.8-.22-1.6-.38-2.4l-5.12,0-.2-.75a25,25,0,0,0-.84-2.58l-.28-.72,4.16-3c-.34-.73-.71-1.46-1.1-2.16l-4.87,1.6-.42-.64a26,26,0,0,0-1.6-2.21l-.49-.59,3-4.13c-.55-.6-1.13-1.17-1.72-1.72l-4.13,3-.6-.48a25.82,25.82,0,0,0-2.2-1.6l-.64-.42,1.6-4.87q-1.07-.6-2.16-1.11l-3,4.16-.72-.27a27,27,0,0,0-2.59-.85l-.74-.2,0-5.11c-.8-.16-1.6-.29-2.4-.38L35.36,34l-.76,0a24.86,24.86,0,0,0-2.73,0l-.77,0-1.56-4.87c-.8.09-1.6.22-2.4.38l0,5.11-.74.2a27,27,0,0,0-2.59.85l-.72.27-3-4.16Q19,32.32,18,32.92l1.6,4.87-.64.42a25.82,25.82,0,0,0-2.2,1.6l-.6.48-4.13-3c-.6.55-1.17,1.12-1.72,1.72l3,4.13-.48.59a26,26,0,0,0-1.6,2.21l-.42.64L5.91,45c-.4.7-.77,1.43-1.1,2.16l4.15,3-.27.71a26,26,0,0,0-.84,2.59l-.2.75-5.12,0c-.16.8-.29,1.6-.38,2.4L7,58.11l0,.77c0,.45,0,.9,0,1.36s0,.91,0,1.36l0,.77L2.15,63.93c.09.8.22,1.61.38,2.4H7.65l.2.74a26,26,0,0,0,.84,2.59l.27.72-4.15,3c.33.74.7,1.46,1.1,2.17l4.87-1.61.42.65a25.82,25.82,0,0,0,1.6,2.2l.48.6-3,4.13c.55.59,1.12,1.17,1.72,1.72l4.13-3,.6.49c.69.56,1.43,1.09,2.2,1.6l.64.42L18,87.56q1.07.6,2.16,1.11l3-4.16.72.28a25.82,25.82,0,0,0,2.58.84l.75.2Zm6.09-8A22.67,22.67,0,1,1,55.91,60.24,22.7,22.7,0,0,1,33.23,82.91Zm0-43.34A20.67,20.67,0,1,0,53.91,60.24,20.7,20.7,0,0,0,33.23,39.57Z"/><path class="cls-1" d="M119,132l-.92,0-.72,0-1.3-4.45a18.51,18.51,0,0,1-2.93-.66l-3.09,3.45-.67-.29a24.52,24.52,0,0,1-3-1.58l-.62-.39,1.11-4.51a19.25,19.25,0,0,1-2.2-2l-4.41,1.45-.43-.59A24.4,24.4,0,0,1,98,119.46l-.34-.64,3.21-3.35a19.81,19.81,0,0,1-.89-2.87l-4.53-.95-.08-.72c-.06-.56-.11-1.13-.13-1.7s0-1.13,0-1.7l0-.72,4.45-1.3a19.69,19.69,0,0,1,.66-2.93L97,99.49l.29-.67a24.52,24.52,0,0,1,1.58-3l.39-.61,4.51,1.1a20.12,20.12,0,0,1,2-2.2l-1.44-4.41.58-.43a23.09,23.09,0,0,1,2.87-1.81l.64-.34,3.35,3.2a19.81,19.81,0,0,1,2.87-.89l.95-4.53.72-.08c.56-.06,1.13-.11,1.7-.13s1.13,0,1.7,0l.72,0,1.3,4.44a19.72,19.72,0,0,1,2.93.67l3.09-3.46.67.29a24.59,24.59,0,0,1,3,1.59l.62.38-1.11,4.51a18.46,18.46,0,0,1,2.2,2l4.41-1.45.43.58a23.09,23.09,0,0,1,1.81,2.87l.35.64-3.21,3.36a19.31,19.31,0,0,1,.89,2.86l4.53.95.08.73c.06.56.11,1.12.13,1.69s0,1.14,0,1.7l0,.73-4.44,1.29a18.54,18.54,0,0,1-.67,2.93l3.46,3.1-.29.66a24.44,24.44,0,0,1-1.58,3l-.39.62-4.51-1.11a18.44,18.44,0,0,1-2,2.2l1.44,4.42-.58.42a23.6,23.6,0,0,1-2.87,1.82l-.64.34L126,126.32a19.31,19.31,0,0,1-2.86.89l-1,4.53-.72.08c-.56.06-1.13.11-1.7.13Zm-.13-2c.27,0,.55,0,.83,0s.56,0,.84,0l.92-4.39.66-.13a17.69,17.69,0,0,0,3.71-1.15l.61-.27,3.25,3.11c.49-.28,1-.57,1.42-.89l-1.41-4.28.51-.43a17.47,17.47,0,0,0,2.64-2.86l.4-.53,4.37,1.07c.28-.48.54-1,.78-1.48l-3.35-3,.22-.63a17.32,17.32,0,0,0,.86-3.79l.07-.67,4.31-1.26c0-.27,0-.55,0-.83s0-.56-.05-.84l-4.4-.92-.12-.66a17.69,17.69,0,0,0-1.15-3.71l-.27-.61,3.11-3.25c-.28-.49-.58-1-.89-1.42l-4.28,1.41-.43-.51a17.47,17.47,0,0,0-2.86-2.64l-.53-.39,1.07-4.38c-.49-.28-1-.54-1.48-.78l-3,3.36-.63-.22a16.87,16.87,0,0,0-3.8-.87l-.66-.07-1.26-4.31h-.83l-.84,0-.92,4.4-.66.12a17.15,17.15,0,0,0-3.71,1.16l-.61.26-3.26-3.11c-.48.28-.95.58-1.41.89l1.4,4.28-.5.44A17,17,0,0,0,104.92,98l-.4.54-4.37-1.07q-.42.72-.78,1.47l3.35,3-.22.63a17.19,17.19,0,0,0-.86,3.79l-.07.66-4.32,1.26c0,.28,0,.56,0,.84s0,.56,0,.83l4.4.92.12.66a17.33,17.33,0,0,0,1.15,3.71l.27.62-3.11,3.25c.28.48.58.95.89,1.41l4.28-1.4.43.5a17.47,17.47,0,0,0,2.86,2.64l.53.4-1.07,4.37c.49.28,1,.54,1.48.78l3-3.35.63.22a17.27,17.27,0,0,0,3.8.86l.66.07Zm0-5.81a15.8,15.8,0,1,1,.62,0Zm0-29.68h-.54a13.84,13.84,0,1,0,.54,0Z"/><rect class="cls-2" x="55.15" y="64.16" width="65.84" height="76.44" rx="3.13"/><rect class="cls-3" x="3.31" y="84.83" width="108.13" height="63.84" rx="3.13"/><rect class="cls-4" x="8.86" y="89.67" width="38.3" height="18.65" rx="1.96"/><rect class="cls-4" x="8.86" y="112.04" width="38.3" height="8.4" rx="1.96"/><rect class="cls-4" x="8.86" y="123.95" width="38.3" height="8.4" rx="1.96"/><rect class="cls-4" x="8.86" y="135.86" width="38.3" height="8.4" rx="1.96"/><path class="cls-2" d="M79.38,142.58a24.9,24.9,0,1,1,0-49.8A24.65,24.65,0,0,1,94.5,97.9l2.31,1.76-3.53,4.61L91,102.51a18.89,18.89,0,0,0-11.59-3.93,19.1,19.1,0,1,0,18.86,22.08l.45-2.87,5.74.9-.45,2.87a24.9,24.9,0,0,1-24.6,21Z"/><path class="cls-2" d="M72.51,110a6.56,6.56,0,0,1,2.28.42,5.22,5.22,0,0,1,1.87,1.16A4.48,4.48,0,0,1,78,114.87a4.69,4.69,0,0,1-.57,2.24,7.2,7.2,0,0,1-2,2.19,6.16,6.16,0,0,0-1.14,1,.13.13,0,0,0,.08,0l1.24-.11c.52,0,.94-.07,1.25-.07a1.47,1.47,0,0,1,1,.23,1.54,1.54,0,0,1,.36.88,8.92,8.92,0,0,1,.08,1.22c0,.76-.06,1.2-.19,1.32s-2.36.25-6.63.28l-4.32.06-.21-.26a1.86,1.86,0,0,1-.21-1.07,6.21,6.21,0,0,1,.2-1.81,2.14,2.14,0,0,1,.67-1,15.31,15.31,0,0,1,1.77-1.15q.21-.1.63-.36a16,16,0,0,0,2.19-1.5,5,5,0,0,0,1.12-1.4,1.72,1.72,0,0,0,.24-.78,1,1,0,0,0-.29-.65.75.75,0,0,0-.52-.31,2.42,2.42,0,0,0-.59.21,2.31,2.31,0,0,0-.91.83,3.21,3.21,0,0,1-.62.67.2.2,0,0,1-.11,0A3.5,3.5,0,0,1,69,115a4,4,0,0,1-1.29-1,.8.8,0,0,1-.15-.44,2.08,2.08,0,0,1,.23-.7,5.22,5.22,0,0,1,3.5-2.77A4.46,4.46,0,0,1,72.51,110Z"/><path class="cls-2" d="M87.9,110.23a2.62,2.62,0,0,1,.49,0l.88,0,1.38.08a12.41,12.41,0,0,1,1.26.1.69.69,0,0,1,.42.25.76.76,0,0,1,.15.48l0,.52a4.51,4.51,0,0,1,0,.64l0,.63,0,1.52a18.81,18.81,0,0,0,.26,3.09.35.35,0,0,0,.29.1h.1a1.12,1.12,0,0,1,.93.31,2.28,2.28,0,0,1,.24,1.27,5.46,5.46,0,0,1-.31,2.39c-.07.12-.24.18-.5.18h-.31a3.13,3.13,0,0,0-.46,0c-.16,0-.26,0-.3.14a3.92,3.92,0,0,0-.14.77,2.49,2.49,0,0,1-.31,1l-.21.23h-2a7,7,0,0,1-2.17-.15,2.59,2.59,0,0,1-.26-1.06c-.09-.62-.14-1-.16-1a18.2,18.2,0,0,0-3.06-.1,17.74,17.74,0,0,1-3.18-.13c-.12-.07-.18-.25-.18-.55s0-.92,0-1.47a4.66,4.66,0,0,1,.13-1l1-1.29q1.64-2.09,2.61-3.42a21.91,21.91,0,0,1,2.7-3.32A1,1,0,0,1,87.9,110.23Zm-.08,4.59a9.72,9.72,0,0,0-.84,1c-.53.63-.93,1.13-1.21,1.51a1.55,1.55,0,0,0-.38.7,4.21,4.21,0,0,0,1.5.1,3.91,3.91,0,0,0,1-.07c.1-.06.15-.18.14-.38s0-.35,0-.45q0-.65-.12-1.89C87.91,115,87.87,114.82,87.82,114.82Z"/><path class="cls-5" d="M51.23,35c-3.71.54-6.2-4.86-4.42-6.72s7.1-2.51,8.59-1.55,3.73-1.2,6.29-.44,4.9,4.91,4.36,8.11,4.16,5.77,6.71,8.8,4,12.52.54,14.59-12.57-2.31-14.17-4.28S53.42,48.34,53,47,53.1,34.7,51.23,35Z"/><path class="cls-6" d="M47.21,54.21c-.15,2.34-3.05,9.65-1,10.37s4.46-2,5.84-7.23S47.21,54.21,47.21,54.21Z"/><path class="cls-7" d="M57.14,43.74C51.47,42.37,47.23,53.9,46.9,55.13s8.41,3.7,8.88,3.17S61.93,44.91,57.14,43.74Z"/><path class="cls-8" d="M60.53,42.2c5.83.26,8.31,10.6,8.31,14.31s-.36,19.61-1.59,20.84-17.32,1.77-18.55,0c-.69-1,3.32-5.3,3.66-10.95.28-4.57-1.86-7.77-1.77-11.93C50.67,50.72,52.76,41.84,60.53,42.2Z"/><path class="cls-5" d="M65.41,74.75c3.06,1.8-9.65,6.31-10.71,8.79s-18.37,3.18-21.55,2.65S25.38,84.76,27,80.7c.84-2.14,15.49-6.42,21.23-6.4C56.08,74.32,64,73.92,65.41,74.75Z"/><path class="cls-5" d="M66.36,75.06c3.07,1.8,1.06,6,0,8.48S48,86.72,44.81,86.19,37,84.76,38.63,80.7,63.36,73.29,66.36,75.06Z"/><path class="cls-9" d="M38.26,80.89c.93-2,7.62-1.39,8.67,5.07s-1.15,24-2.25,25-3.55.54-4-.29S36.3,85.2,38.26,80.89Z"/><path class="cls-10" d="M54.61,75.28c0,.31-6.49,2.38-6.89,2.51s-14.72.06-15.06-.1-.48-.82-.48-.82l20-2.48Z"/><path class="cls-9" d="M27,80.49c1.12-1.95,7.72-.66,8.15,5.86s-3.7,23-4.9,23.89-3.32,1-3.7.14S24.63,84.58,27,80.49Z"/><path class="cls-11" d="M48.08,77.19c3.54-1.06,6.83-2.1,6.83-2.1l-8.65-1.58Z"/><path class="cls-5" d="M45.28,109.86c2.14,2.35,0,3-.51,3.59-1,1.21-7.81,5.13-8.54,4.45-1.65-1.53,2.5-5.69,3.94-7S44.76,109.29,45.28,109.86Z"/><path class="cls-9" d="M68.84,56.51c1.21,4.37,1,13.25,1,14.13s-15.82,4.7-16.72,4.86-4.95-.2-4.95-1.2,2.26-2.6,3.5-2.25,2.12,1.59,2.83,1.06,9.36-4.06,9.54-4.77S61.24,58.63,61.24,57,68.06,53.7,68.84,56.51Z"/><path class="cls-11" d="M28.52,66.62l.92-.63s16.6-.18,16.82,0,1.33,5.53,1.64,6.53a18.16,18.16,0,0,1,.84,3.82c-.13.22-.66.85-.66.85Z"/><path class="cls-5" d="M30.24,110.24c2.66,1.74.2,2.81-.57,3.55-1.14,1.12-5.9,6.33-6.78,5.86-2-1.07,2.36-7.85,3.65-9.27C26.93,110,29.6,109.82,30.24,110.24Z"/><path class="cls-7" d="M62.87,43.61c5.83.11,7,12.35,7,13.62s-9.07,1.44-9.39.8S58,43.51,62.87,43.61Z"/><path class="cls-2" d="M46.42,67.11l2,9.13a.91.91,0,0,1-.89,1.11H32.11a.91.91,0,0,1-.87-.62l-3-9.13a.92.92,0,0,1,.87-1.2H45.53A.91.91,0,0,1,46.42,67.11Z"/><path class="cls-3" d="M37.71,70.2c.83,0,.67,1.57,1.29,2.19a1.32,1.32,0,0,1-1,2.19c-1.47.13-1.52-1.92-1.19-2.19C37.39,71.88,36.82,70.19,37.71,70.2Z"/><path class="cls-6" d="M61,42.9c.09,1.51-2.05,2.65-2.84,2.52s-2.42-.62-2-1.25-.43-6.7.76-7.63S60.69,38.58,61,42.9Z"/><path class="cls-9" d="M39.33,55.25c-1.54-2.75-2.88-4.92-2.72-5.7s.82-1.18,2.37.44,6.62,7.42,7.89,9.13,2.34,4.49.94,5.63C45.41,66.58,40.87,58,39.33,55.25Z"/><path class="cls-9" d="M37.78,52.44C36.8,51,36.64,50,35.93,49c-.24-.35-1.16-1.7-1-1.92s1.22,1.36,1.25,1.2-1.45-2.19-1.28-2.37,1.59,1.74,1.64,1.63S35.07,45.15,35.26,45s1.59,2.2,1.71,2.1-1-1.8-.78-2,1.85,2.56,2,2.89.58-2,1.17-1.76c.31.1,0,1.76-.44,2.91-.35.89.59,1.36,1.38,2.24.47.52-2.24,1.47-2.24,1.47Z"/><path class="cls-9" d="M62.69,33.75c.77,3.66-1.2,7.17-4.39,7.84s-5.16-2-5.93-5.67,0-6.9,3.15-7.57S61.92,30.1,62.69,33.75Z"/><path class="cls-6" d="M53.63,36.3c.44-.09,2.06,3,2,3.27s-.92.54-1.34.26S53.63,36.3,53.63,36.3Z"/><path class="cls-5" d="M49.62,31.7c1.31,1.38,1.61,4,2.47,2.23s2-3.41,4-3.51,4.11,2.82,3.85,4.12-.44,2,0,2.34.66.29,1,0-.46-3.1.65-3.11S63,35.1,62.81,36.18a7.71,7.71,0,0,0,.58,3.08L64,32.44l-1.14-4.2H59.38l-6.32-.49Z"/><path class="cls-7" d="M51.74,52c.12.08,1.91.12,2.54.15a.31.31,0,0,0,.17,0,.37.37,0,0,0,.07-.14,2.93,2.93,0,0,0,.1-1.06c-.09-.16-1-.19-1.59-.2a5.15,5.15,0,0,0-1.37.06A2.21,2.21,0,0,0,51.74,52Z"/><path class="cls-4" d="M104.75,48.85,106,43.43A6.49,6.49,0,0,1,109,38.56,17.09,17.09,0,1,0,87.9,36.45a6.68,6.68,0,0,1,2,5.43l.22,5.56A65.81,65.81,0,0,0,104.75,48.85Z"/><path class="cls-12" d="M108.37,9.39A17.07,17.07,0,0,1,105,35.32,6.52,6.52,0,0,0,102,40.19l-1.28,5.43a53.87,53.87,0,0,1-10.68-.75l.11,2.57a65.81,65.81,0,0,0,14.58,1.41L106,43.43A6.49,6.49,0,0,1,109,38.56a17.08,17.08,0,0,0-.59-29.17Z"/><path class="cls-3" d="M107.8,25.74a.35.35,0,0,0-.48-.09l-8.47,6L92.2,24.2a.35.35,0,0,0-.49,0,.34.34,0,0,0,0,.48l6.75,7.56-1.07,11a.35.35,0,1,0,.69.07l1.06-11,8.6-6.07A.34.34,0,0,0,107.8,25.74Z"/><path class="cls-8" d="M90.17,47.44l.18,4.62a6,6,0,0,0,5.4,6.56l1.37.13a6,6,0,0,0,6.56-5.4l1.07-4.5A65.81,65.81,0,0,1,90.17,47.44Z"/><rect class="cls-7" x="88.59" y="40.37" width="18.74" height="5.05" rx="1.62" transform="matrix(1, 0.1, -0.1, 1, 4.57, -9.21)"/><rect class="cls-7" x="88.14" y="45.04" width="18.74" height="5.05" rx="1.62" transform="translate(5.02 -9.14) rotate(5.51)"/><rect class="cls-7" x="87.69" y="49.71" width="18.74" height="5.05" rx="1.62" transform="translate(5.46 -9.08) rotate(5.51)"/><path class="cls-8" d="M106.18,41.17a1.65,1.65,0,0,1,.06.63l-.17,1.79a1.62,1.62,0,0,1-1.77,1.46L88.87,43.56a.8.8,0,0,1-.26-.05A1.64,1.64,0,0,0,90,44.66l15.42,1.48a1.61,1.61,0,0,0,1.77-1.45l.18-1.8A1.62,1.62,0,0,0,106.18,41.17Z"/><path class="cls-8" d="M105.73,45.83a1.65,1.65,0,0,1,.06.63l-.17,1.79a1.62,1.62,0,0,1-1.77,1.46L88.42,48.22l-.26,0a1.61,1.61,0,0,0,1.4,1.14L105,50.8a1.62,1.62,0,0,0,1.77-1.46l.17-1.79A1.62,1.62,0,0,0,105.73,45.83Z"/><path class="cls-8" d="M105.28,50.5a1.65,1.65,0,0,1,.06.63l-.17,1.8a1.62,1.62,0,0,1-1.77,1.45L88,52.89a.8.8,0,0,1-.26,0A1.64,1.64,0,0,0,89.11,54l15.42,1.48A1.61,1.61,0,0,0,106.3,54l.18-1.8A1.62,1.62,0,0,0,105.28,50.5Z"/><path class="cls-7" d="M93.28,23.74c.17-.31.25-.25.49,0,.5.44.09,0,.26.42a1,1,0,0,0,.08.22.72.72,0,0,0,.57.31c.78,0,1.33-1,1.76-1.52.08-.09.2-.3.31-.35s.12-.09.16,0-.12.5-.16.65a5.08,5.08,0,0,0-.15,1.45,2.45,2.45,0,0,0,1.07,1.92,1.65,1.65,0,0,0,1.84.06,2.75,2.75,0,0,0,.93-1.79,2.46,2.46,0,0,1,.4-1c.23-.28.34-.28.36.07s0,.54,0,.81a1.38,1.38,0,0,0,1.3,1.41,1.19,1.19,0,0,0,.78-.4c.22-.24.33-.66.58-.85.55-.43,1.55,1.25,2.13.2a.23.23,0,0,0-.22-.35c-.81,0-1.16-1.09-2.07-.73-.44.18-1,1.46-1.45,1.14-.65-.48.22-1.8-.63-2.27-.6-.32-1.25.18-1.55.68s-.33,1.38-.7,2c-.63,1-1.72,0-1.84-.84a5,5,0,0,1,.09-1.54,1.87,1.87,0,0,0,0-1.1c-.29-.56-.92-.34-1.27,0s-.67,1.1-1.12,1.51l-.27.16c-.2.24-.33.22-.39-.05s-.06-.16-.13-.33a.92.92,0,0,0-.19-.35.69.69,0,0,0-1.18.3c-.05.14.16.27.24.13Z"/><path class="cls-13" d="M95.4,10.09S88.48,11.91,85.86,17s1.5,6.5,3.67,2.42S93.52,11.15,95.4,10.09Z"/><path class="cls-3" d="M115,38.43a35.89,35.89,0,0,0,3,4.51c1,1.24,2.42,2.91,4,3.33a.92.92,0,0,0,1.14-1.22c-.65-1.45-2.19-2.55-3.31-3.63a40.07,40.07,0,0,1-3.51-3.85c-.56-.7-1.83,0-1.36.86Z"/><path class="cls-3" d="M118,34.29c.67.71,1.35,1.4,2.07,2.07s1.37,1.51,2.33,1.62a.83.83,0,0,0,.83-1.17c-.36-.82-1.34-1.24-2-1.76s-1.52-1.16-2.25-1.78-1.49.44-1,1Z"/><path class="cls-3" d="M117.88,15.71c5.53-1.14,11.89-2.4,16.86-5.18a.64.64,0,0,0-.38-1.2c-5.66.58-11.59,3.21-16.76,5.47a.48.48,0,0,0,.28.91Z"/><path class="cls-3" d="M115.38,11.12a19.62,19.62,0,0,1,2-1.32,9.93,9.93,0,0,0,1.83-1.3.62.62,0,0,0-.44-1c-1.74,0-3.19,1.56-4.1,2.87a.53.53,0,0,0,.76.72Z"/><path class="cls-3" d="M101.6,5.42c0-.86.07-1.72.07-2.59a6.2,6.2,0,0,0,0-1.14c-.06-.43-.26-.87-.35-1.3a.49.49,0,0,0-.93-.09,9.14,9.14,0,0,0-.61,1.21A4.9,4.9,0,0,0,99.71,3a9,9,0,0,0,.56,2.66c.21.66,1.33.45,1.33-.23Z"/><path class="cls-3" d="M74.42,2.54C75,4.36,76.65,5.9,77.91,7.3a20.72,20.72,0,0,0,4.41,4.06.7.7,0,0,0,1-1,35.36,35.36,0,0,0-4.39-4.69c-1.22-1.24-2.42-2.82-4-3.63-.33-.16-.56.24-.48.51Z"/><path class="cls-3" d="M77.92,12.24c.6.35,1.21.69,1.83,1a4.57,4.57,0,0,0,2,.72.51.51,0,0,0,.35-.91,5.42,5.42,0,0,0-1.77-.83c-.65-.26-1.29-.53-1.92-.82s-.93.56-.45.84Z"/><path class="cls-3" d="M83.5,6c-.28.52.13,1.26.33,1.76a3.7,3.7,0,0,0,.94,1.73.62.62,0,0,0,1-.43,3.91,3.91,0,0,0-.66-1.88c-.23-.48-.51-1.26-1.07-1.41A.41.41,0,0,0,83.5,6Z"/><path class="cls-3" d="M81.93,35c-1.49,1.19-3,2.36-4.45,3.57a24.67,24.67,0,0,0-3.93,3.41.4.4,0,0,0,.48.59,25.2,25.2,0,0,0,4.18-3.11c1.5-1.18,3-2.38,4.44-3.58.58-.46-.15-1.33-.72-.88Z"/><path class="cls-3" d="M80.48,33.13a2.61,2.61,0,0,0-1.72.16,2,2,0,0,0-1.22,1.24.62.62,0,0,0,.55.67,3.44,3.44,0,0,0,1.33-.48c.41-.18.82-.39,1.24-.55s.3-1-.18-1Z"/></g></g></svg>